<svg version="1.0" xmlns="http://www.w3.org/2000/svg" width="933.333" height="933.333" viewBox="0 0 700 700"><path d="M276.8.5c-.2.2-3.9.6-8.3 1-4.4.3-8.9.8-10 1-1.1.2-4 .7-6.5 1-24.8 3-57.9 13.4-83.9 26.4-14 7-30.5 17.1-30.4 18.6.1 1 35.9 22.5 37.4 22.5.5 0 .9.4.9 1 0 .5.4 1 .9 1s11.6 6.3 24.6 14c13.1 7.7 24 14 24.2 14 .3 0 1.7.8 3.1 1.9 1.5 1 4.3 2.7 6.2 3.8 4.3 2.4 13.9 8 16 9.3.8.5 6 3.6 11.5 6.8 5.5 3.2 16.5 9.7 24.5 14.4 31.3 18.4 72.7 42.7 76 44.6 1.9 1.1 15.9 9.3 31 18.2 15.1 8.9 29.5 17.4 32 18.8 2.5 1.4 6.1 3.5 8 4.7 1.9 1.2 4.5 2.7 5.8 3.4l2.2 1.2V39.4l-9.2-5.6C406.4 17.9 370.5 6 338 2.5c-3.6-.4-7.4-.9-8.5-1.2-2.2-.5-52.2-1.3-52.7-.8zm237.1 11.7c0 .7-.1 21.7-.1 46.5-.1 24.9-.2 45.3-.3 45.3-.2 0-2-2.4-4.2-5.3-5.6-7.3-12.5-15-20.8-23-8.8-8.6-21.5-19.1-21.6-18-.5 3.3-.3 346.6.2 346.9.4.2 15.6-8.4 33.9-19.1 18.3-10.7 33.4-19.5 33.7-19.5.2 0 1.6-.8 3.1-1.9 1.5-1 13.1-7.8 25.7-15.2 12.7-7.3 28.1-16.4 34.4-20.1 6.2-3.7 11.5-6.8 11.6-6.8.1 0 16-9.2 35.1-20.4l34.9-20.5.1-135V11h-82.8c-65.5 0-82.8.3-82.9 1.2zm-412 64c-32.8 32.2-57.1 68.5-74.6 111.2-7.2 17.5-14.6 41.1-17.7 56.8-2 10-2.6 13.6-4 22.8-2.7 18.5-3.2 23.9-4.2 43.3l-.6 12.9 2.3-1.5c1.3-.8 16.6-9.8 33.9-19.9 45.1-26.5 70.3-41.3 87.5-51.3 8.3-4.9 18.6-10.9 23-13.5 4.4-2.6 27.8-16.3 52-30.5s50.3-29.5 58-34c7.7-4.5 15.4-9.1 17.2-10.2l3.2-1.9-22.1-13c-12.3-7.1-23-13.4-24-13.9-1-.6-12.5-7.3-25.5-14.9-13.1-7.6-31.7-18.5-41.3-24.1-9.6-5.6-19.9-11.6-22.8-13.3-2.9-1.8-5.4-3.2-5.5-3.2-.2 0-5.2-2.9-11.2-6.5-6-3.6-11.2-6.5-11.6-6.5-.3 0-5.8 5.1-12 11.2zm34.5 195.7c-.7.7-39.7 23.7-58.4 34.4-2.1 1.2-20.5 11.9-40.9 23.7l-37 21.5.5 11c.2 6 .6 13 .9 15.5.2 2.5.7 7.4 1 11 .7 7.4 4.3 31.7 5.1 34.1.2 1 .6 3.1.9 4.7 1.5 12.3 12.6 49.8 20 67.7 23.1 55.8 55.4 98.5 100.2 132.3 4.5 3.4 8.5 6.2 9 6.2.9 0 1.1-361.5.2-362.4-.3-.3-1-.2-1.5.3zm524.1 49.2c-9.3 5.6-18.8 11.1-21 12.4-7.6 4.3-37 21.5-38.5 22.5-.8.5-3.5 2.1-6 3.5s-5.2 3-6 3.5c-5.8 3.7-15.2 9-16 9-.6 0-1 .4-1 1 0 .5-.4 1-.9 1-.9 0-9.5 5-87.1 50.5-12.9 7.6-24.8 14.5-26.5 15.5-2.7 1.5-18.2 10.6-71 41.5-8.2 4.8-24.2 14.2-35.5 20.7-11.3 6.6-21.1 12.6-21.8 13.2-1.1 1 4.8 4.8 30 19.6 17.2 10 33.1 19.3 35.3 20.5 2.2 1.3 17.3 10 33.5 19.5s31.5 18.4 34 19.8c2.5 1.4 8.9 5.2 14.4 8.4l9.8 5.8 5.7-5.8c7.9-8 11-11.7 16.5-19.5 2.6-3.7 4.9-6.7 5.1-6.7.1 0 .2 21.5.1 47.9l-.1 47.9h83.1l83.1-.1V491.9c0-129.2-.3-180.9-1.1-180.8-.6 0-8.7 4.5-18.1 10z"/><path d="M163 549.5v100.6l13.9 6.8c23.3 11.4 52.6 20.5 75.6 23.5 2.2.3 5.6.8 7.5 1.1 23.5 3.3 63.5 2.4 89.3-2 1.5-.3 4-.7 5.7-1 1.6-.3 6-1.2 9.7-2.1 3.8-.9 7.3-1.7 7.8-1.8 15-3.5 37.3-12.2 54.1-21.1 9.8-5.2 29.1-17.5 33.6-21.4 1.3-1.1 3.1-2.6 4-3.3 2-1.5 1.4-2.7-2.2-4.7-1.4-.8-12.4-7.3-24.5-14.4-12.1-7.1-23.6-13.8-25.5-14.9-1.9-1.1-18.8-11-37.5-22.1-18.7-11-36-21.1-38.5-22.5-2.5-1.4-9.6-5.6-15.8-9.4-6.3-3.7-11.6-6.8-11.9-6.8-.3 0-1.7-.8-3.1-1.9-1.5-1-4.7-2.9-7.2-4.3-4.7-2.6-18.5-10.8-52-30.7-10.7-6.3-19.7-11.6-20-11.6-.3 0-2.4-1.3-4.8-2.8-2.3-1.5-6.1-3.8-8.3-5-2.2-1.2-4.8-2.7-5.7-3.2-8.4-5-26.4-15.7-29.2-17.2-1.9-1.1-5.9-3.4-8.8-5.2-2.9-1.7-5.5-3.1-5.7-3.1-.3 0-.5 45.2-.5 100.5z"/></svg>