<?xml version="1.0" standalone="no"?>
<!DOCTYPE svg PUBLIC "-//W3C//DTD SVG 20010904//EN"
 "http://www.w3.org/TR/2001/REC-SVG-20010904/DTD/svg10.dtd">
<svg version="1.0" xmlns="http://www.w3.org/2000/svg"
 width="700.000000pt" height="700.000000pt" viewBox="0 0 700.000000 700.000000"
 preserveAspectRatio="xMidYMid meet">
<metadata>
Created by potrace 1.14, written by Peter Selinger 2001-2017
</metadata>
<g transform="translate(0.000000,700.000000) scale(0.100000,-0.100000)"
fill="#000000" stroke="none">
<path d="M2768 6995 c-2 -2 -39 -6 -83 -10 -44 -3 -89 -8 -100 -10 -11 -2 -40
-7 -65 -10 -248 -30 -579 -134 -839 -264 -140 -70 -305 -171 -304 -186 1 -10
359 -225 374 -225 5 0 9 -4 9 -10 0 -5 4 -10 9 -10 5 0 116 -63 246 -140 131
-77 240 -140 242 -140 3 0 17 -8 31 -19 15 -10 43 -27 62 -38 43 -24 139 -80
160 -93 8 -5 60 -36 115 -68 55 -32 165 -97 245 -144 313 -184 727 -427 760
-446 19 -11 159 -93 310 -182 151 -89 295 -174 320 -188 25 -14 61 -35 80 -47
19 -12 45 -27 58 -34 l22 -12 0 944 0 943 -92 56 c-264 159 -623 278 -948 313
-36 4 -74 9 -85 12 -22 5 -522 13 -527 8z"/>
<path d="M5139 6878 c0 -7 -1 -217 -1 -465 -1 -249 -2 -453 -3 -453 -2 0 -20
24 -42 53 -56 73 -125 150 -208 230 -88 86 -215 191 -216 180 -5 -33 -3 -3466
2 -3469 4 -2 156 84 339 191 183 107 334 195 337 195 2 0 16 8 31 19 15 10
131 78 257 152 127 73 281 164 344 201 62 37 115 68 116 68 1 0 160 92 351
204 l349 205 1 1350 0 1351 -828 0 c-655 0 -828 -3 -829 -12z"/>
<path d="M1019 6238 c-328 -322 -571 -685 -746 -1112 -72 -175 -146 -411 -177
-568 -20 -100 -26 -136 -40 -228 -27 -185 -32 -239 -42 -433 l-6 -129 23 15
c13 8 166 98 339 199 451 265 703 413 875 513 83 49 186 109 230 135 44 26
278 163 520 305 242 142 503 295 580 340 77 45 154 91 172 102 l32 19 -221
130 c-123 71 -230 134 -240 139 -10 6 -125 73 -255 149 -131 76 -317 185 -413
241 -96 56 -199 116 -228 133 -29 18 -54 32 -55 32 -2 0 -52 29 -112 65 -60
36 -112 65 -116 65 -3 0 -58 -51 -120 -112z"/>
<path d="M1364 4281 c-7 -7 -397 -237 -584 -344 -21 -12 -205 -119 -409 -237
l-370 -215 5 -110 c2 -60 6 -130 9 -155 2 -25 7 -74 10 -110 7 -74 43 -317 51
-341 2 -10 6 -31 9 -47 15 -123 126 -498 200 -677 231 -558 554 -985 1002
-1323 45 -34 85 -62 90 -62 9 0 11 3615 2 3624 -3 3 -10 2 -15 -3z"/>
<path d="M6605 3789 c-93 -56 -188 -111 -210 -124 -76 -43 -370 -215 -385
-225 -8 -5 -35 -21 -60 -35 -25 -14 -52 -30 -60 -35 -58 -37 -152 -90 -160
-90 -6 0 -10 -4 -10 -10 0 -5 -4 -10 -9 -10 -9 0 -95 -50 -871 -505 -129 -76
-248 -145 -265 -155 -27 -15 -182 -106 -710 -415 -82 -48 -242 -142 -355 -207
-113 -66 -211 -126 -218 -132 -11 -10 48 -48 300 -196 172 -100 331 -193 353
-205 22 -13 173 -100 335 -195 162 -95 315 -184 340 -198 25 -14 89 -52 144
-84 l98 -58 57 58 c79 80 110 117 165 195 26 37 49 67 51 67 1 0 2 -215 1
-479 l-1 -479 831 0 831 1 0 1808 c0 1292 -3 1809 -11 1808 -6 0 -87 -45 -181
-100z"/>
<path d="M1630 1505 l0 -1006 139 -68 c233 -114 526 -205 756 -235 22 -3 56
-8 75 -11 235 -33 635 -24 893 20 15 3 40 7 57 10 16 3 60 12 97 21 38 9 73
17 78 18 150 35 373 122 541 211 98 52 291 175 336 214 13 11 31 26 40 33 20
15 14 27 -22 47 -14 8 -124 73 -245 144 -121 71 -236 138 -255 149 -19 11
-188 110 -375 221 -187 110 -360 211 -385 225 -25 14 -96 56 -158 94 -63 37
-116 68 -119 68 -3 0 -17 8 -31 19 -15 10 -47 29 -72 43 -47 26 -185 108 -520
307 -107 63 -197 116 -200 116 -3 0 -24 13 -48 28 -23 15 -61 38 -83 50 -22
12 -48 27 -57 32 -84 50 -264 157 -292 172 -19 11 -59 34 -88 52 -29 17 -55
31 -57 31 -3 0 -5 -452 -5 -1005z"/>
</g>
</svg>
